<svg viewBox="-106 0 512 512" xmlns="http://www.w3.org/2000/svg"><path d="m270 462c11.050781 0 20 8.949219 20 20v20h-280v-20c0-11.050781 8.949219-20 20-20zm0 0" fill="#424d63"/><path d="m290 10v20c0 11.050781-8.949219 20-20 20h-240c-11.050781 0-20-8.949219-20-20v-20zm0 0" fill="#424d63"/><path d="m133.640625 204.570312c6.46875 4.007813 11.960937 9.550782 16.359375 15.429688 4.46875-5.941406 10.128906-11.558594 16.761719-15.660156 37.816406-22.789063 63.238281-58.949219 63.238281-89.941406v-18.398438c-24.480469 15.300781-52.238281 22.941406-80 22.941406s-55.519531-7.640625-80-22.941406v18.398438c0 30.992187 25.421875 67.152343 63.640625 90.171874zm136.359375 193.089844v64.339844h-240v-64.339844c0-49.679687 25.800781-97.191406 70.511719-124.351562 12.726562-7.730469 12.726562-26.886719 0-34.617188-44.710938-27.160156-70.511719-74.671875-70.511719-124.351562v-64.339844h240v64.339844c0 49.679687-25.800781 97.191406-70.511719 124.351562-12.726562 7.730469-12.726562 26.886719 0 34.617188 44.710938 27.160156 70.511719 74.671875 70.511719 124.351562zm-40 24.339844v-4.398438c0-30.992187-25.421875-27.152343-63.640625-50.171874-6.46875-4.007813-11.980469-9.089844-16.390625-14.96875-4.46875 5.9375-10.097656 11.097656-16.730469 15.199218-37.816406 22.789063-63.238281 18.949219-63.238281 49.941406v4.398438zm-70-109c0-5.519531-4.480469-10-10-10s-10 4.480469-10 10 4.480469 10 10 10 10-4.480469 10-10zm0 0" fill="#cae9fc"/><path d="m230 417.601562v4.398438h-160v-4.398438c0-30.992187 25.421875-27.152343 63.238281-49.941406 6.632813-4.101562 12.261719-9.261718 16.730469-15.199218 4.410156 5.878906 9.921875 10.960937 16.390625 14.96875 38.21875 23.019531 63.640625 19.179687 63.640625 50.171874zm0 0" fill="#ffe781"/><path d="m230 96v18.398438c0 30.992187-25.421875 67.152343-63.238281 89.941406-6.632813 4.101562-12.292969 9.71875-16.761719 15.660156-4.398438-5.878906-9.890625-11.421875-16.359375-15.429688-38.21875-23.019531-63.640625-59.179687-63.640625-90.171874v-18.398438c24.480469 15.300781 52.238281 22.941406 80 22.941406s55.519531-7.640625 80-22.941406zm0 0" fill="#ffe781"/><path d="m150 303c5.519531 0 10 4.480469 10 10s-4.480469 10-10 10-10-4.480469-10-10 4.480469-10 10-10zm0 0"/><path d="m204.683594 247.234375c23.199218-14.09375 42.410156-33.9375 55.550781-57.386719 12.929687-23.074218 19.765625-49.183594 19.765625-75.507812v-56.058594c11.640625-4.128906 20-15.246094 20-28.28125v-20c0-5.523438-4.476562-10-10-10h-280c-5.523438 0-10 4.476562-10 10v20c0 13.035156 8.359375 24.152344 20 28.28125v56.058594c0 26.324218 6.835938 52.433594 19.765625 75.507812 13.140625 23.449219 32.351563 43.292969 55.554687 57.390625 2.964844 1.800781 4.738282 5.078125 4.738282 8.761719 0 3.6875-1.773438 6.960938-4.742188 8.765625-23.203125 14.09375-42.410156 33.9375-55.550781 57.386719-12.929687 23.074218-19.765625 49.183594-19.765625 75.507812v56.058594c-11.640625 4.128906-20 15.246094-20 28.28125v20c0 5.523438 4.476562 10 10 10h280c5.523438 0 10-4.476562 10-10v-20c0-13.035156-8.359375-24.152344-20-28.28125v-56.058594c0-26.324218-6.835938-52.4375-19.765625-75.507812-13.140625-23.449219-32.347656-43.296875-55.554687-57.390625-2.964844-1.800781-4.738282-5.078125-4.738282-8.761719 0-3.6875 1.773438-6.960938 4.742188-8.765625zm-184.683594-227.234375h260v10c0 5.515625-4.484375 10-10 10h-240c-5.515625 0-10-4.484375-10-10zm260 472h-260v-10c0-5.515625 4.484375-10 10-10h240c5.515625 0 10 4.484375 10 10zm-85.703125-210.144531c41.140625 24.992187 65.703125 68.285156 65.703125 115.804687v54.339844h-220v-54.339844c0-47.519531 24.5625-90.8125 65.699219-115.804687 8.992187-5.457031 14.359375-15.125 14.359375-25.855469s-5.367188-20.398438-14.355469-25.855469c-41.140625-24.992187-65.703125-68.285156-65.703125-115.804687v-54.339844h220v54.339844c0 47.519531-24.5625 90.8125-65.699219 115.800781-8.992187 5.460937-14.359375 15.128906-14.359375 25.859375s5.367188 20.398438 14.355469 25.855469zm0 0"/><path d="m157.96875 346.460938c-1.886719-2.515626-4.847656-3.996094-7.988281-4-.003907 0-.007813 0-.011719 0-3.140625 0-6.101562 1.476562-7.988281 3.984374-3.773438 5.015626-8.46875 9.277344-13.953125 12.679688-11.453125 6.898438-21.683594 11.210938-30.714844 15.019531-20.019531 8.441407-37.3125 15.734375-37.3125 43.457031v4.398438c0 5.523438 4.476562 10 10 10h160c5.523438 0 10-4.476562 10-10v-4.398438c0-27.703124-17.332031-35.03125-37.398438-43.511718-9.109374-3.851563-19.429687-8.214844-31.027343-15.191406-5.316407-3.304688-9.890625-7.488282-13.605469-12.4375zm61.636719 65.539062h-139.214844c1.519531-9.242188 7.824219-12.3125 24.695313-19.429688 9.183593-3.871093 20.613281-8.691406 33.316406-16.34375.03125-.023437.066406-.042968.097656-.0625 4.148438-2.566406 7.980469-5.5 11.460938-8.769531 3.390624 3.191407 7.113281 6.042969 11.128906 8.535157.039062.019531.074218.042968.109375.0625 12.839843 7.734374 24.359375 12.605468 33.613281 16.515624 16.941406 7.164063 23.265625 10.25 24.792969 19.492188zm0 0"/><path d="m240 114.398438v-18.398438c0-3.636719-1.972656-6.984375-5.152344-8.746094-3.179687-1.765625-7.066406-1.660156-10.148437.265625-22.417969 14.015625-48.25 21.421875-74.699219 21.421875s-52.277344-7.40625-74.699219-21.421875c-3.082031-1.925781-6.96875-2.03125-10.148437-.265625-3.179688 1.761719-5.152344 5.109375-5.152344 8.746094v18.398438c0 17.296874 6.679688 35.914062 19.3125 53.835937 12.242188 17.367187 29.222656 32.878906 49.109375 44.863281 4.039063 2.515625 7.996094 6.078125 11.578125 10.382813v49.519531c0 5.523438 4.476562 10 10 10s10-4.476562 10-10v-49.5c3.648438-4.355469 7.742188-8.003906 11.972656-10.625 40.691406-24.539062 68.027344-64.109375 68.027344-98.476562zm-78.402344 81.375c-.03125.023437-.0625.039062-.097656.0625-3.984375 2.464843-7.851562 5.511718-11.464844 9.023437-3.503906-3.429687-7.222656-6.371094-11.125-8.789063-.039062-.023437-.074218-.046874-.109375-.066406-35.171875-21.183594-58.800781-53.976562-58.800781-81.605468v-1.472657c21.761719 10.515625 45.652344 16.011719 70 16.011719s48.238281-5.496094 70-16.011719v1.472657c0 27.195312-24.015625 60.65625-58.402344 81.375zm0 0"/></svg>